# xmcd CD database file
#
# Track frame offsets:
#	150
#	13318
#	24630
#	36203
#	49173
#	61366
#	72688
#	82377
#	94246
#	109811
#	119409
#	130873
#
# Disc length: 1884 seconds
#
# Revision: 0
# Processed by: cddbd v1.4PL0 Copyright (c) Steve Scherf et al.
# Submitted via: CDex 1.50Beta7
#
DISCID=b5075a0c
DTITLE=Bob Fleher - Old-Time Clawhammer Banjo
DYEAR=1900
DGENRE=Country
TTITLE0=Snowdrop
TTITLE1=Dusty Miller
TTITLE2=Citice
TTITLE3=Ring, Ring de Banjo
TTITLE4=Buckdancer's Choice
TTITLE5=Soldier's Joy
TTITLE6=Cacklin' Hen
TTITLE7=Buckborne
TTITLE8=Liste to the Mocking Bird
TTITLE9=Spanish Fandango
TTITLE10=East Tennessee Blues
TTITLE11=Yellow Rose of Texas
EXTD=
EXTT0=
EXTT1=
EXTT2=
EXTT3=
EXTT4=
EXTT5=
EXTT6=
EXTT7=
EXTT8=
EXTT9=
EXTT10=
EXTT11=
PLAYORDER=
